<?xml version="1.0" encoding="utf-8"?>
<!-- Generator: Adobe Illustrator 27.5.0, SVG Export Plug-In . SVG Version: 6.00 Build 0)  -->
<svg version="1.1" xmlns="http://www.w3.org/2000/svg" xmlns:xlink="http://www.w3.org/1999/xlink" x="0px" y="0px"
	 viewBox="0 0 2200 2200" style="enable-background:new 0 0 2200 2200;" xml:space="preserve">
<g id="background">
	<rect y="0" style="fill:#FFFFFF;" width="2200" height="2200"/>
</g>
<g id="Objects">
	<g>
		<circle style="fill:#FFFFFF;" cx="1100" cy="1100" r="650.386"/>
		<path style="fill:#344249;" d="M1982.4,999.818l-112.13-48.27c-7.098-37.052-16.817-73.171-28.931-108.172l72.933-97.815
			c8.128-10.902,8.99-25.595,2.19-37.371l-68.913-119.361c-6.799-11.777-19.954-18.377-33.46-16.789l-121.404,14.281
			c-24.433-28.166-50.84-54.573-79.006-79.006l14.281-121.404c1.589-13.505-5.012-26.661-16.789-33.46l-119.361-68.913
			c-11.776-6.799-26.47-5.938-37.371,2.19l-97.815,72.933c-35.001-12.114-71.12-21.833-108.172-28.931l-48.27-112.13
			c-5.377-12.49-17.671-20.583-31.269-20.583h-137.826c-13.598,0-25.892,8.092-31.269,20.583l-48.27,112.13
			c-37.052,7.098-73.171,16.817-108.172,28.931l-97.815-72.933c-10.902-8.128-25.595-8.99-37.371-2.19l-119.361,68.913
			c-11.777,6.799-18.377,19.954-16.789,33.46l14.281,121.404c-28.166,24.433-54.573,50.84-79.006,79.006L385.91,572.04
			c-13.505-1.589-26.661,5.012-33.46,16.789l-68.913,119.361c-6.799,11.777-5.938,26.47,2.19,37.371l72.933,97.815
			c-12.114,35.001-21.833,71.12-28.931,108.172l-112.13,48.27c-12.49,5.377-20.583,17.671-20.583,31.269v137.826
			c0,13.598,8.092,25.892,20.583,31.269l112.13,48.27c7.098,37.052,16.817,73.171,28.931,108.172l-72.933,97.815
			c-8.128,10.902-8.99,25.595-2.19,37.371l68.913,119.361c6.799,11.777,19.954,18.377,33.46,16.789l121.404-14.281
			c24.433,28.166,50.84,54.573,79.006,79.006L572.04,1814.09c-1.589,13.505,5.012,26.661,16.789,33.46l119.361,68.913
			c11.777,6.799,26.47,5.938,37.371-2.19l97.815-72.933c35.001,12.114,71.12,21.833,108.172,28.931l48.27,112.13
			c5.377,12.49,17.671,20.583,31.269,20.583h137.826c13.599,0,25.892-8.093,31.269-20.583l48.27-112.13
			c37.052-7.098,73.171-16.817,108.172-28.931l97.815,72.933c10.902,8.128,25.595,8.99,37.371,2.19l119.361-68.913
			c11.777-6.799,18.377-19.954,16.789-33.46l-14.281-121.404c28.167-24.433,54.573-50.84,79.006-79.006l121.404,14.281
			c13.505,1.589,26.661-5.012,33.46-16.789l68.913-119.361c6.799-11.776,5.938-26.47-2.19-37.371l-72.933-97.815
			c12.114-35.001,21.833-71.12,28.931-108.172l112.13-48.27c12.49-5.377,20.583-17.671,20.583-31.269v-137.826
			C2002.983,1017.489,1994.89,1005.194,1982.4,999.818z M1100,1712.79c-338.43,0-612.79-274.36-612.79-612.79
			S761.57,487.21,1100,487.21s612.79,274.36,612.79,612.79S1438.43,1712.79,1100,1712.79z"/>
		<path style="fill:#559952;" d="M844.32,1355.68l-134.04,134.04c-99.73-99.74-161.42-237.52-161.42-389.72h189.55
			C738.41,1199.85,778.88,1290.25,844.32,1355.68z"/>
		<path style="fill:#7BC165;" d="M844.32,844.32c-65.44,65.43-105.91,155.83-105.91,255.68H548.86
			c0-152.2,61.69-289.98,161.42-389.72L844.32,844.32z"/>
		<path style="fill:#B3DB6E;" d="M1100,548.86v189.55c-99.85,0-190.25,40.47-255.68,105.91L710.28,710.28
			C810.02,610.55,947.8,548.86,1100,548.86z"/>
		<path style="fill:#FFD561;" d="M1489.72,710.28l-134.04,134.04c-65.43-65.44-155.83-105.91-255.68-105.91V548.86
			C1252.2,548.86,1389.98,610.55,1489.72,710.28z"/>
		<path style="fill:#FF994D;" d="M1651.14,1100h-189.55c0-99.85-40.47-190.25-105.91-255.68l134.04-134.04
			C1589.45,810.02,1651.14,947.8,1651.14,1100z"/>
		<path style="fill:#E54C4C;" d="M1651.14,1100c0,152.2-61.69,289.98-161.42,389.72l-134.04-134.04
			c65.44-65.43,105.91-155.83,105.91-255.68H1651.14z"/>
		<path style="fill:#344249;" d="M1180.95,1100c0,44.71-36.24,80.95-80.95,80.95c-44.71,0-80.95-36.24-80.95-80.95
			c0-62.087,47.397-240.873,69.656-321.412c3.168-11.463,19.419-11.463,22.588,0C1133.553,859.127,1180.95,1037.913,1180.95,1100z"
			/>
	</g>
</g>
</svg>
