<?xml version="1.0" encoding="utf-8"?>
<!-- Generator: Adobe Illustrator 27.5.0, SVG Export Plug-In . SVG Version: 6.00 Build 0)  -->
<svg version="1.1" id="Capa_1" xmlns="http://www.w3.org/2000/svg" xmlns:xlink="http://www.w3.org/1999/xlink" x="0px" y="0px"
	 viewBox="0 0 2122 2122" style="enable-background:new 0 0 2122 2122;" xml:space="preserve">
<g>
	<path style="fill:#E4F0F9;" d="M1799.341,499.927l-3.28,0.633v-194.08c-1.115,0.905-2.38,1.882-3.749,2.906
		c-0.445,0.332-0.958,0.696-1.43,1.041c-0.976,0.714-1.974,1.439-3.063,2.204c-0.633,0.445-1.319,0.913-1.989,1.375
		c-1.04,0.716-2.107,1.445-3.236,2.2c-0.771,0.516-1.574,1.046-2.386,1.581c-1.158,0.761-2.359,1.541-3.6,2.338
		c-0.875,0.562-1.756,1.126-2.671,1.705c-1.309,0.829-2.681,1.683-4.072,2.546c-0.947,0.587-1.877,1.168-2.862,1.771
		c-1.536,0.941-3.156,1.916-4.781,2.893c-0.942,0.566-1.844,1.116-2.815,1.694c-2.498,1.486-5.089,3.009-7.779,4.571
		c-0.742,0.431-1.531,0.879-2.288,1.316c-2.217,1.278-4.465,2.568-6.802,3.892c-1.26,0.714-2.586,1.451-3.88,2.177
		c-1.826,1.024-3.654,2.049-5.548,3.097c-1.47,0.814-2.988,1.645-4.499,2.473c-1.836,1.006-3.686,2.017-5.58,3.043
		c-1.582,0.857-3.19,1.723-4.811,2.593c-1.926,1.034-3.884,2.078-5.866,3.13c-1.681,0.893-3.369,1.787-5.089,2.692
		c-2.028,1.067-4.104,2.148-6.186,3.231c-1.747,0.909-3.482,1.814-5.267,2.734c-2.254,1.162-4.572,2.343-6.885,3.522
		c-1.693,0.864-3.354,1.717-5.077,2.589c-3.835,1.939-7.744,3.899-11.727,5.878c-0.101,0.05-0.198,0.099-0.299,0.15l4.482-127.895
		c-1.158,1.6-2.369,3.197-3.609,4.791c-0.382,0.491-0.778,0.981-1.167,1.472c-0.901,1.134-1.821,2.268-2.764,3.4
		c-0.445,0.533-0.891,1.068-1.346,1.6c-1.024,1.203-2.079,2.404-3.155,3.605c-0.363,0.406-0.712,0.811-1.081,1.216
		c-1.42,1.562-2.886,3.122-4.396,4.683c-0.431,0.446-0.883,0.892-1.321,1.337c-1.125,1.144-2.269,2.288-3.443,3.432
		c-0.601,0.585-1.212,1.17-1.825,1.756c-1.1,1.05-2.226,2.1-3.368,3.152c-0.621,0.571-1.235,1.142-1.869,1.714
		c-1.541,1.39-3.12,2.781-4.739,4.176c-0.54,0.465-1.093,0.931-1.641,1.396c-1.492,1.265-3.012,2.533-4.57,3.804
		c-0.79,0.644-1.603,1.29-2.411,1.936c-1.206,0.964-2.43,1.93-3.675,2.897c-0.889,0.69-1.781,1.381-2.69,2.074
		c-1.308,0.996-2.649,1.996-3.999,2.996c-0.849,0.629-1.678,1.256-2.544,1.886c-2.068,1.506-4.188,3.018-6.356,4.536
		c-1.004,0.703-2.048,1.412-3.073,2.118c-1.344,0.925-2.695,1.851-4.077,2.78c-1.176,0.792-2.372,1.587-3.577,2.382
		c-1.31,0.865-2.643,1.734-3.986,2.604c-1.246,0.807-2.486,1.614-3.761,2.425c-1.554,0.989-3.154,1.986-4.752,2.982
		c-2.113,1.317-4.269,2.642-6.461,3.972c-1.447,0.879-2.889,1.756-4.371,2.64c-1.511,0.902-3.059,1.81-4.607,2.718
		c-1.365,0.8-2.74,1.603-4.133,2.409c-1.614,0.933-3.238,1.869-4.891,2.809c-1.389,0.79-2.81,1.586-4.226,2.381
		c-3.114,1.749-6.301,3.512-9.552,5.288c-1.363,0.744-2.702,1.484-4.09,2.234c-1.894,1.023-3.847,2.058-5.788,3.091
		c-1.42,0.756-2.838,1.511-4.283,2.272c-1.993,1.049-4.015,2.105-6.056,3.165c-1.44,0.747-2.902,1.5-4.366,2.253
		c-2.115,1.088-4.23,2.175-6.397,3.273c-1.2,0.609-2.441,1.227-3.657,1.839c-4.356,2.193-8.816,4.409-13.378,6.649
		c-1.35,0.663-2.685,1.323-4.054,1.99c-2.42,1.18-4.89,2.372-7.368,3.566c-1.502,0.723-3.013,1.449-4.536,2.178
		c-2.537,1.213-5.093,2.432-7.69,3.66c-1.385,0.655-2.8,1.317-4.202,1.976c-6.354,2.986-12.849,6.008-19.563,9.085V207.508
		c0,0-0.076,0.113-0.158,0.236c-0.049,0.071-0.114,0.166-0.191,0.279c-0.082,0.121-0.184,0.27-0.3,0.439
		c-0.121,0.177-0.26,0.374-0.417,0.602c-0.122,0.175-0.263,0.377-0.407,0.582c-0.202,0.288-0.412,0.584-0.657,0.93
		c-0.142,0.199-0.309,0.432-0.465,0.651c-0.302,0.424-0.608,0.85-0.966,1.344c-0.057,0.079-0.127,0.174-0.185,0.254
		c-1.377,1.897-3.154,4.29-5.318,7.122c-0.09,0.118-0.175,0.23-0.266,0.349c-0.698,0.912-1.446,1.875-2.225,2.875
		c-0.12,0.154-0.24,0.308-0.363,0.464c-0.823,1.053-1.685,2.146-2.596,3.291c-0.042,0.053-0.086,0.109-0.129,0.162
		c-12.268,15.401-32.503,38.935-61.443,67.031c-10.508,10.201-22.134,20.987-34.988,32.23c-0.186,0.163-0.371,0.325-0.558,0.489
		c-2.665,2.327-5.381,4.67-8.148,7.033c-0.3,0.257-0.604,0.513-0.905,0.77c-11.736,9.994-24.378,20.285-37.973,30.767
		c-0.006,0.005-0.012,0.01-0.019,0.015V182.722c0,0-71.424,123.758-133.728,200.591c-76.199,93.969-95.216,185.978-99.941,223.42
		c-2.883,18.028-3.458,29.313-3.527,30.952c-0.01,0.182-0.011,0.282-0.011,0.282s-0.004-0.13-0.01-0.332c0-0.005,0-0.004,0-0.009
		c-0.038-1.23-0.223-6.029-0.978-13.725l0.988,0.419c0,0-2.394-112.622-93.794-231.212c-2.506-3.27-5.07-6.537-7.712-9.795
		c-62.304-76.833-133.727-200.591-133.727-200.591v182.701c-0.006-0.005-0.012-0.01-0.019-0.015
		c-13.595-10.482-26.237-20.773-37.972-30.767c-0.301-0.257-0.605-0.514-0.905-0.77c-2.768-2.362-5.484-4.706-8.148-7.033
		c-0.187-0.164-0.372-0.326-0.558-0.489c-12.854-11.243-24.479-22.03-34.988-32.23c-28.941-28.096-49.176-51.63-61.443-67.031
		c-0.042-0.053-0.086-0.109-0.129-0.162c-0.911-1.145-1.774-2.238-2.596-3.291c-0.122-0.156-0.242-0.311-0.363-0.464
		c-0.779-1-1.527-1.964-2.225-2.875c-0.092-0.12-0.176-0.231-0.266-0.349c-2.165-2.832-3.942-5.225-5.318-7.122
		c-0.058-0.08-0.128-0.175-0.185-0.254c-0.358-0.494-0.664-0.919-0.966-1.344c-0.157-0.219-0.323-0.452-0.465-0.651
		c-0.245-0.346-0.455-0.642-0.656-0.93c-0.143-0.204-0.285-0.407-0.407-0.582c-0.158-0.227-0.296-0.425-0.417-0.602
		c-0.116-0.168-0.218-0.317-0.3-0.439c-0.077-0.113-0.142-0.207-0.191-0.279c-0.082-0.123-0.158-0.236-0.158-0.236v186.25
		c-0.004-0.002-0.008-0.004-0.012-0.005c-1.001-0.457-1.963-0.905-2.956-1.36c-3.571-1.637-7.1-3.263-10.567-4.874
		c-1.674-0.777-3.317-1.547-4.967-2.319c-2.818-1.318-5.606-2.628-8.355-3.929c-1.626-0.769-3.251-1.538-4.853-2.302
		c-2.967-1.413-5.881-2.815-8.768-4.209c-1.224-0.591-2.476-1.19-3.686-1.778c-3.932-1.911-7.787-3.804-11.571-5.68
		c-1.195-0.593-2.353-1.177-3.534-1.767c-2.69-1.342-5.352-2.68-7.966-4.006c-1.412-0.716-2.806-1.428-4.196-2.14
		c-2.41-1.233-4.784-2.459-7.13-3.678c-1.29-0.671-2.591-1.345-3.863-2.012c-3.03-1.589-6.006-3.167-8.927-4.734
		c-0.598-0.32-1.208-0.644-1.801-0.963c-3.18-1.714-6.285-3.412-9.339-5.1c-1.13-0.624-2.231-1.244-3.344-1.865
		c-2.128-1.189-4.231-2.372-6.297-3.549c-1.157-0.659-2.308-1.317-3.446-1.972c-2.118-1.22-4.195-2.433-6.248-3.642
		c-0.925-0.544-1.869-1.093-2.781-1.634c-2.849-1.694-5.64-3.378-8.362-5.051c-0.709-0.435-1.387-0.866-2.087-1.3
		c-2.064-1.279-4.1-2.554-6.092-3.822c-0.96-0.612-1.903-1.221-2.847-1.829c-1.74-1.123-3.452-2.241-5.136-3.356
		c-0.897-0.594-1.799-1.188-2.681-1.78c-2.002-1.342-3.958-2.679-5.881-4.011c-0.461-0.319-0.942-0.642-1.399-0.961
		c-2.328-1.626-4.588-3.242-6.802-4.855c-0.706-0.514-1.388-1.026-2.082-1.539c-1.545-1.14-3.067-2.279-4.555-3.413
		c-0.76-0.58-1.514-1.158-2.26-1.737c-1.462-1.133-2.893-2.263-4.301-3.391c-0.63-0.504-1.272-1.01-1.891-1.514
		c-1.957-1.592-3.872-3.181-5.725-4.765c-0.292-0.25-0.567-0.498-0.857-0.748c-1.575-1.358-3.115-2.713-4.615-4.067
		c-0.59-0.532-1.164-1.063-1.743-1.594c-1.202-1.104-2.382-2.207-3.536-3.309c-0.567-0.542-1.135-1.084-1.692-1.624
		c-1.274-1.24-2.515-2.48-3.73-3.719c-0.352-0.358-0.718-0.716-1.065-1.075c-1.531-1.581-3.012-3.162-4.452-4.743
		c-0.38-0.418-0.742-0.837-1.116-1.254c-1.067-1.192-2.113-2.384-3.131-3.577c-0.454-0.533-0.901-1.067-1.345-1.6
		c-0.947-1.137-1.871-2.273-2.775-3.411c-0.388-0.489-0.784-0.978-1.164-1.468c-1.243-1.599-2.457-3.199-3.618-4.804l4.482,127.895
		c-0.101-0.05-0.198-0.1-0.299-0.15c-3.984-1.979-7.892-3.939-11.728-5.878c-1.724-0.872-3.384-1.726-5.077-2.589
		c-2.313-1.179-4.63-2.36-6.885-3.522c-1.785-0.92-3.52-1.825-5.267-2.734c-2.082-1.084-4.157-2.165-6.185-3.231
		c-1.721-0.904-3.408-1.799-5.09-2.692c-1.982-1.052-3.94-2.096-5.866-3.13c-1.621-0.87-3.23-1.736-4.811-2.593
		c-1.894-1.026-3.745-2.037-5.58-3.043c-1.511-0.828-3.029-1.659-4.5-2.473c-1.893-1.048-3.722-2.073-5.548-3.097
		c-1.295-0.726-2.62-1.463-3.88-2.177c-2.338-1.323-4.586-2.614-6.803-3.892c-0.757-0.437-1.546-0.885-2.288-1.316
		c-2.69-1.562-5.281-3.085-7.779-4.571c-0.971-0.578-1.873-1.128-2.815-1.694c-1.626-0.977-3.245-1.952-4.781-2.893
		c-0.985-0.603-1.915-1.183-2.862-1.771c-1.39-0.863-2.762-1.717-4.071-2.546c-0.915-0.579-1.797-1.143-2.671-1.705
		c-1.24-0.797-2.441-1.577-3.599-2.338c-0.812-0.534-1.615-1.064-2.387-1.581c-1.128-0.755-2.196-1.484-3.235-2.2
		c-0.67-0.462-1.356-0.929-1.989-1.375c-1.089-0.765-2.086-1.49-3.063-2.204c-0.471-0.345-0.985-0.709-1.43-1.041
		c-1.368-1.023-2.634-2-3.749-2.906v194.299l-4.369-0.852c-23.941-5.145-46.527,13.103-46.527,37.591v1192.878
		c0,1.739,0.151,3.445,0.378,5.13v21.515c0,18.121,12.652,33.782,30.369,37.59l653.856,126.67v0c0,0,95.805,38.92,201.589,0v-1.195
		l653.856-126.67c3.322-0.714,6.466-1.845,9.381-3.33c2.916-1.486,5.604-3.326,8.013-5.459c8.032-7.11,12.974-17.476,12.974-28.801
		V537.517C1845.869,513.029,1823.283,494.781,1799.341,499.927z"/>
	<g>
		<path style="fill:#C3D1DD;" d="M1061.55,637.625c-0.038-1.23-0.223-6.029-0.978-13.725
			c-3.651-37.195-20.777-142.25-100.518-240.588c-62.304-76.833-133.727-200.591-133.727-200.591v182.701
			c-0.006-0.005-0.012-0.01-0.019-0.015c-13.598-10.484-26.235-20.77-37.972-30.767c-0.301-0.257-0.605-0.514-0.905-0.77
			c-2.768-2.362-5.484-4.706-8.148-7.033c-0.187-0.164-0.372-0.326-0.558-0.489c-48.273-42.223-79.73-78.279-96.431-99.261
			c-0.042-0.053-0.086-0.109-0.129-0.162c-0.911-1.145-1.774-2.238-2.596-3.291c-0.122-0.156-0.242-0.311-0.363-0.464
			c-0.779-1-1.527-1.964-2.225-2.875c-0.092-0.12-0.176-0.231-0.266-0.349c-2.165-2.832-3.942-5.225-5.318-7.122
			c-0.058-0.08-0.128-0.175-0.185-0.254c-0.358-0.494-0.664-0.919-0.966-1.344c-0.157-0.219-0.323-0.452-0.465-0.651
			c-0.245-0.346-0.455-0.642-0.656-0.93c-0.143-0.204-0.285-0.407-0.407-0.582c-0.158-0.227-0.296-0.425-0.417-0.602
			c-0.116-0.168-0.218-0.317-0.3-0.439c-0.077-0.113-0.142-0.207-0.191-0.279c-0.082-0.123-0.158-0.236-0.158-0.236v186.25
			c-0.004-0.002-0.008-0.004-0.012-0.005c-1.001-0.457-1.963-0.905-2.956-1.36c-3.571-1.637-7.1-3.263-10.567-4.874
			c-1.674-0.777-3.317-1.547-4.967-2.319c-2.818-1.318-5.606-2.628-8.355-3.929c-1.626-0.769-3.251-1.538-4.853-2.302
			c-2.967-1.413-5.881-2.815-8.768-4.209c-1.224-0.591-2.476-1.19-3.686-1.778c-3.932-1.911-7.787-3.804-11.571-5.68
			c-1.195-0.593-2.353-1.177-3.534-1.767c-2.69-1.342-5.352-2.68-7.966-4.006c-1.412-0.716-2.806-1.428-4.196-2.14
			c-2.41-1.233-4.784-2.459-7.13-3.678c-1.29-0.671-2.591-1.345-3.863-2.012c-3.03-1.589-6.006-3.167-8.927-4.734
			c-0.598-0.32-1.208-0.644-1.801-0.963c-3.18-1.714-6.285-3.412-9.339-5.1c-1.13-0.624-2.231-1.244-3.344-1.865
			c-2.128-1.189-4.231-2.372-6.297-3.549c-1.157-0.659-2.308-1.317-3.446-1.972c-2.118-1.22-4.195-2.433-6.248-3.642
			c-0.925-0.544-1.869-1.093-2.781-1.634c-2.849-1.694-5.64-3.378-8.362-5.051c-0.709-0.435-1.387-0.866-2.087-1.3
			c-2.064-1.279-4.1-2.554-6.092-3.822c-0.96-0.612-1.903-1.221-2.847-1.829c-1.74-1.123-3.452-2.241-5.136-3.356
			c-0.897-0.594-1.799-1.188-2.681-1.78c-2.002-1.342-3.958-2.679-5.881-4.011c-0.461-0.319-0.942-0.642-1.399-0.961
			c-2.328-1.626-4.588-3.242-6.802-4.855c-0.706-0.514-1.388-1.026-2.082-1.539c-1.545-1.14-3.067-2.279-4.555-3.413
			c-0.76-0.58-1.514-1.158-2.26-1.737c-1.462-1.133-2.893-2.263-4.301-3.391c-0.63-0.504-1.272-1.01-1.891-1.514
			c-1.957-1.592-3.872-3.181-5.725-4.765c-0.292-0.25-0.567-0.498-0.857-0.748c-1.575-1.358-3.115-2.713-4.615-4.067
			c-0.59-0.532-1.164-1.063-1.743-1.594c-1.202-1.104-2.382-2.207-3.536-3.309c-0.567-0.542-1.135-1.084-1.692-1.624
			c-1.274-1.24-2.515-2.48-3.73-3.719c-0.352-0.358-0.718-0.717-1.065-1.075c-1.531-1.581-3.012-3.162-4.452-4.743
			c-0.38-0.418-0.742-0.837-1.116-1.254c-1.067-1.192-2.113-2.384-3.131-3.577c-0.454-0.533-0.901-1.067-1.345-1.6
			c-0.947-1.137-1.871-2.273-2.775-3.411c-0.388-0.489-0.784-0.978-1.164-1.468c-1.243-1.599-2.457-3.199-3.618-4.804l4.482,127.895
			c81.23,40.329,192.749,88.311,313.02,125.421c213.464,65.866,297.244,134.725,297.244,134.725s-0.001-0.064-0.005-0.164
			l0.716,0.164c0,0-0.004-0.13-0.01-0.332C1061.551,637.629,1061.55,637.63,1061.55,637.625z"/>
		<path style="fill:#C3D1DD;" d="M1672.698,254.716c-0.382,0.491-0.778,0.981-1.167,1.472c-0.901,1.134-1.821,2.268-2.764,3.4
			c-0.445,0.533-0.891,1.068-1.346,1.6c-1.024,1.203-2.079,2.404-3.155,3.605c-0.363,0.406-0.712,0.811-1.081,1.216
			c-1.42,1.562-2.886,3.122-4.396,4.683c-0.43,0.446-0.883,0.892-1.321,1.337c-1.125,1.144-2.269,2.288-3.443,3.432
			c-0.601,0.585-1.212,1.17-1.825,1.756c-1.1,1.05-2.226,2.1-3.368,3.152c-0.621,0.571-1.235,1.142-1.869,1.714
			c-1.541,1.39-3.12,2.781-4.739,4.176c-0.54,0.465-1.093,0.931-1.641,1.396c-1.492,1.265-3.012,2.533-4.57,3.804
			c-0.79,0.644-1.603,1.29-2.411,1.936c-1.206,0.964-2.43,1.93-3.675,2.897c-0.889,0.69-1.781,1.381-2.69,2.074
			c-1.308,0.996-2.649,1.996-3.999,2.996c-0.849,0.629-1.678,1.256-2.544,1.886c-2.068,1.506-4.188,3.018-6.356,4.536
			c-1.004,0.703-2.048,1.412-3.073,2.118c-1.344,0.925-2.695,1.851-4.077,2.78c-1.176,0.792-2.372,1.587-3.577,2.382
			c-1.31,0.865-2.643,1.734-3.986,2.604c-1.246,0.807-2.486,1.614-3.761,2.425c-1.554,0.989-3.154,1.986-4.752,2.982
			c-2.113,1.317-4.269,2.642-6.461,3.972c-1.447,0.879-2.889,1.756-4.371,2.64c-1.511,0.902-3.059,1.81-4.607,2.718
			c-1.365,0.8-2.74,1.603-4.133,2.409c-1.614,0.933-3.238,1.869-4.891,2.809c-1.389,0.79-2.81,1.586-4.226,2.381
			c-3.114,1.749-6.301,3.512-9.552,5.288c-1.363,0.744-2.702,1.484-4.09,2.234c-1.894,1.023-3.847,2.058-5.788,3.091
			c-1.42,0.756-2.838,1.511-4.283,2.272c-1.993,1.049-4.015,2.105-6.056,3.165c-1.44,0.747-2.902,1.5-4.366,2.253
			c-2.115,1.088-4.23,2.175-6.397,3.273c-1.2,0.609-2.441,1.227-3.657,1.839c-4.356,2.193-8.816,4.409-13.378,6.649
			c-1.35,0.663-2.685,1.323-4.054,1.99c-2.42,1.18-4.89,2.372-7.368,3.566c-1.502,0.723-3.013,1.449-4.536,2.178
			c-2.537,1.213-5.093,2.432-7.69,3.66c-1.385,0.655-2.8,1.317-4.202,1.976c-6.353,2.986-12.849,6.008-19.563,9.085V207.508
			c0,0-0.076,0.113-0.158,0.236c-0.049,0.071-0.114,0.166-0.191,0.279c-0.082,0.121-0.184,0.27-0.3,0.439
			c-0.121,0.177-0.26,0.374-0.417,0.602c-0.122,0.175-0.263,0.377-0.407,0.582c-0.202,0.288-0.412,0.584-0.657,0.93
			c-0.142,0.199-0.309,0.432-0.465,0.651c-0.302,0.424-0.608,0.85-0.966,1.344c-0.057,0.079-0.127,0.174-0.185,0.254
			c-1.377,1.897-3.154,4.29-5.318,7.122c-0.09,0.118-0.175,0.23-0.266,0.349c-0.698,0.912-1.446,1.875-2.225,2.875
			c-0.12,0.154-0.24,0.308-0.363,0.464c-0.823,1.053-1.685,2.146-2.596,3.291c-0.042,0.053-0.086,0.109-0.129,0.162
			c-16.701,20.982-48.158,57.038-96.432,99.261c-0.186,0.163-0.371,0.325-0.558,0.489c-2.665,2.327-5.381,4.67-8.148,7.033
			c-0.3,0.257-0.604,0.513-0.905,0.77c-11.737,9.996-24.374,20.282-37.973,30.767c-0.006,0.005-0.012,0.01-0.019,0.015V182.722
			c0,0-71.424,123.758-133.728,200.591c-69.688,85.94-92.518,176.986-99.941,223.42c-2.883,18.028-3.458,29.313-3.527,30.952
			c-0.01,0.182-0.011,0.282-0.011,0.282s83.779-68.86,297.244-134.725c120.271-37.11,231.79-85.092,313.02-125.421l4.482-127.895
			C1675.148,251.525,1673.937,253.122,1672.698,254.716z"/>
		<g>
			<path style="fill:#97AEBF;" d="M1061.55,637.625c-0.038-1.23-0.223-6.029-0.978-13.725
				c-3.651-37.195-20.777-142.25-100.518-240.588c-62.304-76.833-133.727-200.591-133.727-200.591v182.701
				c-0.006-0.005-0.012-0.01-0.019-0.015c-13.598-10.484-26.235-20.77-37.972-30.767c-0.301-0.257-0.605-0.514-0.905-0.77
				c-2.768-2.362-5.484-4.706-8.148-7.033c-0.187-0.164-0.372-0.326-0.558-0.489c-48.273-42.223-79.73-78.279-96.431-99.261
				c-0.042-0.053-0.086-0.109-0.129-0.162c-0.911-1.145-1.774-2.238-2.596-3.291c-0.122-0.156-0.242-0.311-0.363-0.464
				c-0.779-1-1.527-1.964-2.225-2.875c-0.092-0.12-0.176-0.231-0.266-0.349c-2.165-2.832-3.942-5.225-5.318-7.122
				c-0.058-0.08-0.128-0.175-0.185-0.254c-0.358-0.494-0.664-0.919-0.966-1.344c-0.157-0.219-0.323-0.452-0.465-0.651
				c-0.245-0.346-0.455-0.642-0.656-0.93c-0.143-0.204-0.285-0.407-0.407-0.582c-0.158-0.227-0.296-0.425-0.417-0.602
				c-0.116-0.168-0.218-0.317-0.3-0.439c-0.077-0.113-0.142-0.207-0.191-0.279c-0.082-0.123-0.158-0.236-0.158-0.236v186.25
				c35.474,16.204,75.996,33.704,122.336,52.928c264.02,109.522,270.688,187.258,270.856,191.116l0.716,0.164
				c0,0-0.004-0.13-0.01-0.332C1061.551,637.629,1061.55,637.63,1061.55,637.625z"/>
			<path style="fill:#97AEBF;" d="M1457.286,207.744c-0.049,0.071-0.114,0.166-0.191,0.279c-0.082,0.121-0.184,0.27-0.3,0.439
				c-0.121,0.177-0.26,0.374-0.417,0.602c-0.122,0.175-0.263,0.377-0.407,0.582c-0.202,0.288-0.412,0.584-0.657,0.93
				c-0.142,0.199-0.309,0.432-0.465,0.651c-0.302,0.424-0.608,0.85-0.966,1.344c-0.057,0.079-0.127,0.174-0.185,0.254
				c-1.377,1.897-3.154,4.29-5.318,7.122c-0.09,0.118-0.175,0.23-0.266,0.349c-0.698,0.912-1.446,1.875-2.225,2.875
				c-0.12,0.154-0.24,0.308-0.363,0.464c-0.823,1.053-1.685,2.146-2.596,3.291c-0.042,0.053-0.086,0.109-0.129,0.162
				c-16.701,20.982-48.158,57.038-96.432,99.261c-0.186,0.163-0.371,0.325-0.558,0.489c-2.665,2.327-5.381,4.67-8.148,7.033
				c-0.3,0.257-0.604,0.513-0.905,0.77c-11.737,9.996-24.374,20.282-37.973,30.767c-0.006,0.005-0.012,0.01-0.019,0.015V182.722
				c0,0-71.424,123.758-133.728,200.591c-69.688,85.94-92.518,176.986-99.941,223.42c-2.883,18.028-3.458,29.313-3.527,30.952
				c0.061-1.039,0.484-5.026,3.258-11.615c10.964-26.04,58.799-92.771,267.592-179.383c47.528-19.716,88.904-37.612,125.022-54.163
				V207.508C1457.444,207.508,1457.368,207.622,1457.286,207.744z"/>
		</g>
	</g>
	<path style="fill:#4C78A1;" d="M1799.341,499.927l-637.698,124.392c-33.297,13.794-68.528,17.701-100.083,17.059
		c-0.158-0.003-0.315-0.007-0.472-0.01c-56.491-1.233-101.033-17.048-101.033-17.048v0.205L321.979,499.927
		c-23.941-5.145-46.527,13.103-46.527,37.591v1192.878c0,1.739,0.151,3.445,0.378,5.13c0,0,0,0,0,0v21.515
		c0,18.121,12.652,33.782,30.369,37.59l653.856,126.67v0c0,0,95.805,38.92,201.589,0v-1.195l653.856-126.67
		c3.322-0.714,6.466-1.845,9.381-3.33c2.916-1.486,5.604-3.326,8.013-5.459c8.032-7.11,12.974-17.476,12.974-28.801V537.517
		C1845.869,513.029,1823.283,494.781,1799.341,499.927z"/>
	<path style="fill:#45759A;" d="M1734.495,1195.045c-124.089,66.815-257.15,120.643-395.678,148.19
		c-138.633,27.567-281.407,32.274-421.88,17.856c-141.487-14.522-279.865-47.836-413.123-97.351
		c-79.062-29.376-158.604-64.899-228.362-113.49v580.146c0,1.739,0.151,3.445,0.378,5.13c0,0,0,0,0,0v21.515
		c0,18.121,12.652,33.782,30.369,37.59l653.856,126.67v-0.001c0,0,95.804,38.921,201.588,0v-1.195l653.856-126.67
		c3.322-0.714,6.466-1.845,9.381-3.33c2.916-1.486,5.604-3.326,8.013-5.459c8.032-7.111,12.974-17.476,12.974-28.801v-626.454
		C1809.578,1152.598,1772.495,1174.584,1734.495,1195.045z"/>
	<path style="fill:#3B6B8E;" d="M960.055,649.769V1921.3c0,0,95.805,38.92,201.589,0V649.769
		C1068.5,688.357,960.055,649.769,960.055,649.769z"/>
	<path style="fill:#69A2CC;" d="M1799.341,499.927l-637.698,124.392c-33.297,13.794-68.528,17.701-100.083,17.059
		c-0.158-0.003-0.315-0.007-0.472-0.01c-56.491-1.233-101.033-17.048-101.033-17.048v0.205L321.979,499.927
		c-23.941-5.145-46.527,13.103-46.527,37.591v32.238h0.378v-5.593c0-24.488,22.586-42.736,46.527-37.591l637.698,123.197
		c0,0,108.446,38.588,201.589,0v0.295l637.698-124.688c23.941-5.145,46.527,13.103,46.527,37.591v-25.45
		C1845.869,513.029,1823.283,494.781,1799.341,499.927z"/>
	<polygon style="fill:#69A2CC;" points="377.055,795.471 377.055,1040.97 858.074,1130.989 858.074,885.49 	"/>
	<path style="fill:#F7A83D;" d="M1059.247,841.648c-30.829,0.001-56.461-4.262-74.254-8.488c-8.896-2.112-15.829-4.214-20.466-5.757
		c-1.93-0.643-3.361-1.156-4.472-1.566v29.827c17.938,5.57,53.214,14.243,99.192,14.26c30.192,0.002,65.027-3.841,102.396-14.762
		v-29.559C1124.112,837.563,1089.22,841.646,1059.247,841.648z"/>
	<path style="fill:#F7A83D;" d="M1059.247,894.309c-30.829,0.002-56.461-4.262-74.254-8.488c-8.896-2.112-15.829-4.213-20.466-5.757
		c-1.93-0.642-3.361-1.156-4.472-1.566v29.827c17.938,5.57,53.214,14.243,99.192,14.261c30.192,0.002,65.027-3.841,102.396-14.763
		v-29.559C1124.112,890.224,1089.22,894.307,1059.247,894.309z"/>
	<path style="fill:#F7A83D;" d="M1059.247,1664.521c-30.829,0.001-56.461-4.262-74.254-8.488
		c-8.896-2.112-15.829-4.214-20.466-5.757c-1.93-0.643-3.361-1.157-4.472-1.567v29.827c17.938,5.57,53.214,14.243,99.192,14.261
		c30.192,0.001,65.027-3.841,102.396-14.763v-29.558C1124.112,1660.436,1089.22,1664.519,1059.247,1664.521z"/>
	<path style="fill:#F7A83D;" d="M1059.247,1717.182c-30.829,0.001-56.461-4.262-74.254-8.488
		c-8.896-2.112-15.829-4.214-20.466-5.757c-1.93-0.643-3.361-1.156-4.472-1.567v29.828c17.938,5.57,53.214,14.243,99.192,14.26
		c30.192,0.001,65.027-3.84,102.396-14.762v-29.559C1124.112,1713.097,1089.22,1717.18,1059.247,1717.182z"/>
	<path style="fill:#F7A83D;" d="M1059.247,1548.583c-30.829,0.001-56.461-4.262-74.254-8.488
		c-8.896-2.112-15.829-4.214-20.466-5.757c-1.93-0.643-3.361-1.156-4.472-1.567v29.827c17.938,5.57,53.214,14.243,99.192,14.26
		c30.192,0.001,65.027-3.841,102.396-14.762v-29.559C1124.112,1544.498,1089.22,1548.581,1059.247,1548.583z"/>
	<path style="fill:#F7A83D;" d="M1059.247,1601.244c-30.829,0.002-56.461-4.262-74.254-8.488
		c-8.896-2.113-15.829-4.214-20.466-5.758c-1.93-0.643-3.361-1.156-4.472-1.566v29.827c17.938,5.57,53.214,14.243,99.192,14.261
		c30.192,0.002,65.027-3.841,102.396-14.763v-29.559C1124.112,1597.16,1089.22,1601.243,1059.247,1601.244z"/>
	<path style="fill:#819CAD;" d="M1061.56,637.966c0,0-0.105-5.076-0.988-14.066c-3.651-37.195-20.777-142.25-100.518-240.588
		c-62.304-76.833-133.727-200.591-133.727-200.591v182.701c21.56,16.622,45.446,33.706,71.853,50.823
		C1059.851,521.032,1061.56,637.966,1061.56,637.966z"/>
	<path style="fill:#819CAD;" d="M1226.914,416.246c26.408-17.116,50.294-34.201,71.854-50.823V182.722
		c0,0-71.424,123.758-133.728,200.591c-69.688,85.94-92.518,176.986-99.941,223.42c-2.883,18.028-3.458,29.313-3.527,30.952
		c0.061-1.039,0.484-5.026,3.258-11.615C1070.018,593.766,1096.087,501.041,1226.914,416.246z"/>
</g>
</svg>
