<svg xmlns="http://www.w3.org/2000/svg" viewBox="0 0 24 24" fill="none">
  <circle cx="12" cy="12" r="9" fill="currentColor" fill-opacity="0.10" stroke="currentColor" stroke-width="2"/>
  <path d="M9 19C5 20.5 5 17.5 4 17M9 19V15.5C9 14.5 9.1 14.1 8.5 13.5C11.3 13.2 14.2 12.1 14.2 7.5C14.2 6.3 13.7 5.2 12.9 4.4C13.3 3.4 13.3 2.3 12.9 1.2C12.9 1.2 11.9 0.9 9.7 2.2C7.8 1.7 5.8 1.7 3.9 2.2C1.7 0.9 0.7 1.2 0.7 1.2C0.3 2.3 0.3 3.4 0.7 4.4C-0.1 5.2 -0.6 6.3 -0.6 7.5C-0.6 12.1 2.3 13.2 5.1 13.5C4.5 14.1 4.4 14.7 4.4 15.5V19" transform="translate(6.5 2)" stroke="currentColor" stroke-width="1.6" stroke-linecap="round" stroke-linejoin="round"/>
</svg>