<svg xmlns="http://www.w3.org/2000/svg" viewBox="0 0 24 24" fill="none">
  <path d="M4 10.5L12 3L20 10.5V20C20 20.55 19.55 21 19 21H15V16C15 15.45 14.55 15 14 15H10C9.45 15 9 15.45 9 16V21H5C4.45 21 4 20.55 4 20V10.5Z" fill="currentColor" fill-opacity="0.18"/>
  <path d="M2 11L12 2L22 11" stroke="currentColor" stroke-width="2" stroke-linecap="round" stroke-linejoin="round"/>
  <path d="M4 10.5V20C4 20.55 4.45 21 5 21H9V16C9 15.45 9.45 15 10 15H14C14.55 15 15 15.45 15 16V21H19C19.55 21 20 20.55 20 20V10.5" stroke="currentColor" stroke-width="2" stroke-linecap="round" stroke-linejoin="round"/>
</svg>
