<svg xmlns="http://www.w3.org/2000/svg" viewBox="0 0 24 24" fill="none">
  <path d="M4 4C4 2.9 4.9 2 6 2H14L20 8V20C20 21.1 19.1 22 18 22H6C4.9 22 4 21.1 4 20V4Z" fill="currentColor" fill-opacity="0.18"/>
  <path d="M4 4C4 2.9 4.9 2 6 2H14L20 8V20C20 21.1 19.1 22 18 22H6C4.9 22 4 21.1 4 20V4Z" stroke="currentColor" stroke-width="2" stroke-linecap="round" stroke-linejoin="round"/>
  <path d="M14 2V8H20" stroke="currentColor" stroke-width="2" stroke-linecap="round" stroke-linejoin="round"/>
  <path d="M8 13H16M8 17H13" stroke="currentColor" stroke-width="1.8" stroke-linecap="round"/>
  <circle cx="17" cy="17" r="3.5" fill="currentColor" fill-opacity="0.9"/>
  <path d="M15.8 17L16.8 18L18.2 16" stroke="white" stroke-width="1.2" stroke-linecap="round" stroke-linejoin="round"/>
</svg>
