<svg xmlns="http://www.w3.org/2000/svg" viewBox="0 0 24 24" fill="none">
  <circle cx="12" cy="12" r="9" fill="currentColor" fill-opacity="0.12"/>
  <path d="M12 15C13.6569 15 15 13.6569 15 12C15 10.3431 13.6569 9 12 9C10.3431 9 9 10.3431 9 12C9 13.6569 10.3431 15 12 15Z" fill="currentColor" fill-opacity="0.5" stroke="currentColor" stroke-width="2"/>
  <path d="M19.4 15C19.1 15.6 19.3 16.4 19.8 16.9L19.9 17C20.3 17.4 20.3 18 19.9 18.4L18.4 19.9C18 20.3 17.4 20.3 17 19.9L16.9 19.8C16.4 19.3 15.6 19.1 15 19.4C14.4 19.7 14 20.3 14 21V21.2C14 21.7 13.6 22.1 13.1 22.1H10.9C10.4 22.1 10 21.7 10 21.2V21C10 20.3 9.6 19.7 9 19.4C8.4 19.1 7.6 19.3 7.1 19.8L7 19.9C6.6 20.3 6 20.3 5.6 19.9L4.1 18.4C3.7 18 3.7 17.4 4.1 17L4.2 16.9C4.7 16.4 4.9 15.6 4.6 15C4.3 14.4 3.7 14 3 14H2.8C2.3 14 1.9 13.6 1.9 13.1V10.9C1.9 10.4 2.3 10 2.8 10H3C3.7 10 4.3 9.6 4.6 9C4.9 8.4 4.7 7.6 4.2 7.1L4.1 7C3.7 6.6 3.7 6 4.1 5.6L5.6 4.1C6 3.7 6.6 3.7 7 4.1L7.1 4.2C7.6 4.7 8.4 4.9 9 4.6C9.6 4.3 10 3.7 10 3V2.8C10 2.3 10.4 1.9 10.9 1.9H13.1C13.6 1.9 14 2.3 14 2.8V3C14 3.7 14.4 4.3 15 4.6C15.6 4.9 16.4 4.7 16.9 4.2L17 4.1C17.4 3.7 18 3.7 18.4 4.1L19.9 5.6C20.3 6 20.3 6.6 19.9 7L19.8 7.1C19.3 7.6 19.1 8.4 19.4 9C19.7 9.6 20.3 10 21 10H21.2C21.7 10 22.1 10.4 22.1 10.9V13.1C22.1 13.6 21.7 14 21.2 14H21C20.3 14 19.7 14.4 19.4 15Z" stroke="currentColor" stroke-width="2" stroke-linecap="round" stroke-linejoin="round"/>
</svg>
